<svg width="20" height="20" viewBox="0 0 20 20" fill="none" xmlns="http://www.w3.org/2000/svg">
<path d="M14 18V16.6667C14 15.9594 13.6576 15.2811 13.0481 14.781C12.4386 14.281 11.612 14 10.75 14H4.25C3.38805 14 2.5614 14.281 1.9519 14.781C1.34241 15.2811 1 15.9594 1 16.6667V18" stroke="#109CF1" stroke-width="1.4" stroke-linecap="round" stroke-linejoin="round"/>
<path d="M7 11C8.65685 11 10 9.65685 10 8C10 6.34315 8.65685 5 7 5C5.34315 5 4 6.34315 4 8C4 9.65685 5.34315 11 7 11Z" stroke="#109CF1" stroke-width="1.4" stroke-linecap="round" stroke-linejoin="round"/>
<path d="M19 18V16.6371C18.9993 16.0332 18.7044 15.4465 18.1614 14.9692C17.6184 14.4919 16.8581 14.151 16 14" stroke="#109CF1" stroke-width="1.4" stroke-linecap="round" stroke-linejoin="round"/>
<path d="M13 6C13.8582 6.17056 14.6188 6.55796 15.162 7.10114C15.7052 7.64432 16 8.31238 16 9C16 9.68762 15.7052 10.3557 15.162 10.8989C14.6188 11.442 13.8582 11.8294 13 12" stroke="#109CF1" stroke-width="1.4" stroke-linecap="round" stroke-linejoin="round"/>
</svg>
