<svg width="20" height="20" viewBox="0 0 20 20" fill="none" xmlns="http://www.w3.org/2000/svg">
<g clip-path="url(#clip0_1_89)">
<path d="M9.99951 11.6724C11.2099 11.6724 13.0664 11.981 14.6021 12.5962C15.3693 12.9036 16.0124 13.2709 16.4526 13.6772C16.8879 14.079 17.0776 14.4715 17.0776 14.8608V17.0776H2.92236V14.8608C2.92243 14.4715 3.11205 14.0791 3.54736 13.6772C3.98759 13.2709 4.63069 12.9036 5.39795 12.5962C6.93338 11.9811 8.78913 11.6724 9.99951 11.6724ZM9.99951 2.92236C11.7615 2.92236 13.1888 4.34893 13.189 6.11084C13.189 7.87285 11.7615 9.30029 9.99951 9.30029C8.2377 9.30006 6.81104 7.87271 6.81104 6.11084C6.81115 4.34907 8.23777 2.9226 9.99951 2.92236Z" stroke="#109CF1" stroke-width="1.4"/>
</g>
<defs>
<clipPath id="clip0_1_89">
<rect width="20" height="20" fill="white"/>
</clipPath>
</defs>
</svg>
