<svg width="14" height="14" viewBox="0 0 14 14" fill="none" xmlns="http://www.w3.org/2000/svg">
<g clip-path="url(#clip0_1_83)">
<path d="M12 0C13.1046 0 14 0.895431 14 2V12C14 13.1046 13.1046 14 12 14H2C0.895431 14 0 13.1046 0 12V2C0 0.895431 0.895431 0 2 0H12ZM5 2C4.44772 2 4 2.44772 4 3V11C4 11.5523 4.44772 12 5 12C5.55228 12 6 11.5523 6 11V3C6 2.44772 5.55228 2 5 2Z" fill="#C2CFE0"/>
</g>
<defs>
<clipPath id="clip0_1_83">
<rect width="14" height="14" fill="white"/>
</clipPath>
</defs>
</svg>
